<svg xmlns="http://www.w3.org/2000/svg" xmlns:xlink="http://www.w3.org/1999/xlink" id="Layer_1" x="0" y="0" enable-background="new 0 0 775.9 847.6" version="1.1" viewBox="0 0 775.9 847.6" xml:space="preserve"><g><g><path fill="#523B80" d="M205,587.5C92.7,587.5,1.4,496.2,1.4,383.9S92.7,180.2,205,180.2v104.2c-54.8,0-99.5,44.6-99.5,99.5 c0,54.8,44.6,99.5,99.5,99.5V587.5z"/></g><line x1="138.6" x2="64.9" y1="309.6" y2="232.3" fill="none" stroke="#43316D" stroke-miterlimit="10" stroke-width="3"/><line x1="74" x2="151.2" y1="538.4" y2="464.7" fill="none" stroke="#43316D" stroke-miterlimit="10" stroke-width="3"/><line x1="109.1" x2="0" y1="398.3" y2="400.8" fill="none" stroke="#43316D" stroke-miterlimit="10" stroke-width="3"/><line x1="366.2" x2="392.8" y1="47.9" y2="8.4" fill="none" stroke="#F4E9D8" stroke-miterlimit="10" stroke-width="2.123"/><line x1="309.4" x2="269.8" y1="58" y2="31.4" fill="none" stroke="#F4E9D8" stroke-miterlimit="10" stroke-width="2.123"/><line x1="336.8" x2="327.7" y1="47" y2=".2" fill="none" stroke="#F4E9D8" stroke-miterlimit="10" stroke-width="2.123"/><rect width="385.9" height="432.8" x="185.4" y="414.8" fill="#F4E9D8"/><rect width="185.9" height="182.3" x="293.7" y="203.9" fill="#F4E9D8" transform="matrix(0.9813 -0.1924 0.1924 0.9813 -49.544 79.9102)"/><g><path fill="#F7901E" d="M343.4,264.1l10.3,52.7c14.6-2.9,24-17,21.2-31.5C372.1,270.7,358,261.2,343.4,264.1z"/><path fill="#523B80" d="M322.2,295.6c2.9,14.6,17,24,31.5,21.2l-10.3-52.7C328.8,266.9,319.4,281,322.2,295.6z"/></g><g><path fill="#F7901E" d="M407.2,293.9l38.5-37.5c-10.3-10.6-27.3-10.9-38-0.5C397.1,266.2,396.9,283.2,407.2,293.9z"/><path fill="#523B80" d="M445.2,294.4c10.6-10.3,10.9-27.3,0.5-38l-38.5,37.5C417.6,304.5,434.6,304.7,445.2,294.4z"/></g><path fill="none" stroke="#F4E9D8" stroke-miterlimit="10" stroke-width="106" d="M363,386.2"/><path fill="none" stroke="#F7901E" stroke-miterlimit="10" stroke-width="85" d="M249.7,291.1c-34.4,0-62.3-27.9-62.3-62.3 c0-34.4,27.9-62.3,62.3-62.3"/><rect width="28" height="28" x="297.2" y="483" fill="#523B80"/><circle cx="287.6" cy="520.6" r="39.9" fill="#7A5BA6"/><rect width="55" height="55" x="358.7" y="480.4" fill="#7A5BA6"/><rect width="55" height="55" x="413.7" y="480.4" fill="#F7901E"/><rect width="55" height="55" x="358.7" y="589.9" fill="#F7901E"/><rect width="55" height="55" x="468.7" y="589.9" fill="#F7901E"/><rect width="55" height="55" x="468.7" y="480.4" fill="#523B80"/><rect width="59.8" height="55" x="463.9" y="534.9" fill="#7A5BA6"/><rect width="55" height="55" x="413.7" y="534.9" fill="#7A5BA6"/><rect width="55" height="55" x="358.7" y="534.9" fill="#523B80"/><rect width="55" height="55" x="412.7" y="589.9" fill="#523B80"/><path fill="#7A5BA6" d="M461.1,330c1.8,9.1-4.1,17.9-13.2,19.7l-95.3,18.7c-9.1,1.8-17.9-4.1-19.7-13.2l0,0 c-1.8-9.1,4.1-17.9,13.2-19.7l95.3-18.7C450.6,315,459.4,320.9,461.1,330L461.1,330z"/><line x1="369.2" x2="345.9" y1="205.6" y2="86.9" fill="none" stroke="#43316D" stroke-miterlimit="10" stroke-width="3"/><g><path fill="#523B80" d="M572.2,520c112.3,0,203.7-91.4,203.7-203.7c0-112.3-91.4-203.7-203.7-203.7v104.2 c54.8,0,99.5,44.6,99.5,99.5c0,54.8-44.6,99.5-99.5,99.5V520z"/></g><path fill="none" stroke="#F7901E" stroke-miterlimit="10" stroke-width="85" d="M507.6,221.6c34.4,0,62.3-27.9,62.3-62.3 c0-34.4-27.9-62.3-62.3-62.3"/><line x1="638.6" x2="712.3" y1="242.1" y2="164.8" fill="none" stroke="#43316D" stroke-miterlimit="10" stroke-width="3"/><line x1="703.3" x2="626" y1="470.9" y2="397.2" fill="none" stroke="#43316D" stroke-miterlimit="10" stroke-width="3"/><circle cx="346.8" cy="95.7" r="25.7" fill="#F7901E"/></g></svg>